<?xml version="1.0" encoding="utf-8"?>
<!-- Generator: Adobe Illustrator 27.8.1, SVG Export Plug-In . SVG Version: 6.00 Build 0)  -->
<svg version="1.1" id="Livello_1" xmlns="http://www.w3.org/2000/svg" xmlns:xlink="http://www.w3.org/1999/xlink" x="0px" y="0px"
	 viewBox="0 0 123.2 52.2" style="enable-background:new 0 0 123.2 52.2;" xml:space="preserve">
<style type="text/css">
	.st0{fill:#363b48;}
	.st1{opacity:0.8;fill:#363b48;}
	.st2{opacity:0.85;fill:#363b48;}
	.st3{opacity:0.7;fill:#363b48;}
	.st4{opacity:0.9;fill:#363b48;}
</style>
<g id="Livello_2_00000110440888898230599570000009119079849420306856_">
	<g>
		<g id="Livello_1-2_00000147200286421224078340000004580405469742572437_">
			<path class="st0" d="M60.2,30.5c2.1,0,6,0.9,6,3.7v2h-3.6v-0.9c0-0.9-1.4-1.3-2.4-1.3c-2.9,0-4.9,2.2-4.9,5.2
				c0,3.4,2.5,5.1,5.2,5.1c2.8,0,4.9-2.3,4.9-2.3l1.7,2.9c-1.8,1.9-4.3,3-7,3c-5.5,0-9-3.9-9-8.7C51.1,34.5,54.5,30.5,60.2,30.5z"/>
			<path class="st0" d="M70.4,42.2c0,0,2.1,2.4,5,2.4c1.3,0,2.2-0.5,2.2-1.6c0-2.3-8.8-2.3-8.8-7.7c0-3.3,3-4.9,6.4-4.9
				c2.2,0,5.8,0.7,5.8,3.4v1.7h-3.6v-0.8c0-0.8-1.2-1.2-2.1-1.2c-1.5,0-2.5,0.5-2.5,1.5c0,2.6,8.8,2.1,8.8,7.6
				c0,3.1-2.8,5.1-6.4,5.1c-2.6,0.1-5.1-1-6.9-2.9L70.4,42.2z"/>
			<path class="st0" d="M92.3,30.4c4.8,0,7.4,3.5,7.4,7.9c0,0.5-0.1,1.5-0.1,1.5l-11.5,0c0.3,2.9,2.5,4.5,5,4.5
				c2.7,0,4.7-1.9,4.7-1.9l1.7,2.9c-1.8,1.6-4.2,2.5-6.7,2.5c-5.5,0-8.9-4-8.9-8.7C83.9,34,87.3,30.4,92.3,30.4z M95.4,36.9
				c-0.1-2-1.4-3.4-3.1-3.4c-2.1,0-3.6,1.3-4.1,3.4H95.4z"/>
			<path class="st0" d="M111.9,36.9h0.5v-0.1c0-2.4-1-3.3-3.1-3.3c-0.8,0-2.2,0.2-2.2,1.1v0.9h-3.8v-1.8c0-3.1,4.4-3.4,6.1-3.4
				c5.5,0,7.2,2.9,7.2,6.6v6.2c0,0.4,0.2,0.7,0.6,0.7c0,0,0.1,0,0.1,0h1.3v3.5h-3.7c-1.5,0-2.1-0.8-2.1-1.8c0-0.2,0-0.5,0-0.7h-0.1
				c-1,1.9-2.9,3-5,2.9c-3,0-5.7-1.8-5.7-5.2C102.1,37.4,109.2,37,111.9,36.9z M108.7,44.5c2.2,0,3.8-2.4,3.8-4.4v-0.4h-0.7
				c-2.1,0-5.6,0.3-5.6,2.6C106.2,43.5,107.1,44.5,108.7,44.5z"/>
			<g>
				<polygon class="st1" points="10.1,17.1 4.6,15.5 34.5,43.8 				"/>
				<polygon class="st2" points="20.1,18.3 13.3,14.7 34.5,43.8 				"/>
				<polygon class="st3" points="33.1,19.2 25.9,24.8 34.5,43.8 				"/>
				<polygon class="st4" points="45.8,9.1 38.6,6.6 34.5,43.8 				"/>
				<polygon class="st3" points="54,22.6 54,12.7 34.5,43.8 				"/>
			</g>
		</g>
	</g>
</g>
</svg>
