<?xml version="1.0" encoding="utf-8"?>
<!-- Generator: Adobe Illustrator 27.8.1, SVG Export Plug-In . SVG Version: 6.00 Build 0)  -->
<svg version="1.1" id="Livello_1" xmlns="http://www.w3.org/2000/svg" xmlns:xlink="http://www.w3.org/1999/xlink" x="0px" y="0px"
	 viewBox="0 0 236.9 235.2" style="enable-background:new 0 0 236.9 235.2;" xml:space="preserve">
<style type="text/css">
	.st0{opacity:0.5;}
	.st1{fill:#F4F3F4;}
</style>
<g>
	<g>
		<g>
			<g class="st0">
				<path class="st1" d="M59.7,121.8c0-11.1,8.5-19,20.2-19c7.1,0,12.7,2.6,16.3,7.2l-7.7,6.9c-2.1-2.7-4.7-4.2-7.9-4.2
					c-5.1,0-8.5,3.5-8.5,9.1s3.4,9.1,8.5,9.1c3.3,0,5.8-1.6,7.9-4.2l7.7,6.9c-3.6,4.7-9.2,7.2-16.3,7.2
					C68.2,140.7,59.7,132.9,59.7,121.8z"/>
				<path class="st1" d="M96.8,137l3.9-8.9c3.4,2,8,3.3,12,3.3c3.5,0,4.7-0.7,4.7-2c0-4.6-20-0.9-20-14.4c0-6.7,5.6-12.2,16.9-12.2
					c4.9,0,9.9,1,13.7,3.2l-3.7,8.9c-3.6-1.8-6.9-2.7-10.1-2.7c-3.6,0-4.7,1-4.7,2.3c0,4.4,20,0.7,20,14.1c0,6.6-5.6,12.2-16.9,12.2
					C106.6,140.7,100.4,139.2,96.8,137z"/>
				<path class="st1" d="M163.2,130.7v9.2h-30.1v-36.2h29.5v9.2h-17.5v4.2h15.3v8.8h-15.3v4.8H163.2z"/>
				<path class="st1" d="M192.7,133.6h-13.8l-2.4,6.3H164l15.8-36.2h12l15.8,36.2h-12.6L192.7,133.6z M189.3,124.8l-3.5-9.1
					l-3.5,9.1H189.3z"/>
			</g>
			<g>
				<polygon class="st1" points="178.9,170.6 178.9,161.8 178.9,157.6 178.9,148.4 166.9,148.4 166.9,184.6 197,184.6 197,175.4 
					178.9,175.4 				"/>
				<g>
					<path class="st1" d="M93.4,166.5c0-11.1,8.5-19,20.2-19c7.1,0,12.7,2.6,16.3,7.2l-7.7,6.9c-2.1-2.7-4.7-4.2-7.9-4.2
						c-5.1,0-8.5,3.5-8.5,9.1c0,5.5,3.4,9.1,8.5,9.1c3.3,0,5.8-1.6,7.9-4.2l7.7,6.9c-3.6,4.7-9.2,7.2-16.3,7.2
						C101.9,185.5,93.4,177.6,93.4,166.5z"/>
					<path class="st1" d="M200,166.5c0-11.1,8.5-19,20.2-19c7.1,0,12.7,2.6,16.3,7.2l-7.7,6.9c-2.1-2.7-4.7-4.2-7.9-4.2
						c-5.1,0-8.5,3.5-8.5,9.1c0,5.5,3.4,9.1,8.5,9.1c3.3,0,5.8-1.6,7.9-4.2l7.7,6.9c-3.6,4.7-9.2,7.2-16.3,7.2
						C208.5,185.5,200,177.6,200,166.5z"/>
					<path class="st1" d="M153.7,178.3h-13.8l-2.4,6.3h-12.4l15.8-36.2h12l15.8,36.2h-12.6L153.7,178.3z M150.3,169.5l-3.5-9.1
						l-3.5,9.1H150.3z"/>
				</g>
			</g>
		</g>
		<g>
			<g>
				<path class="st1" d="M213.5,184.5c2.1-2.9,4-5.9,5.8-9.1c-4.2-0.7-6.9-4-6.9-8.9c0-0.7,0.1-1.3,0.1-1.9
					c-2.4,4.9-5.2,9.5-8.3,13.9C206.5,181.3,209.7,183.4,213.5,184.5z"/>
				<path class="st1" d="M220.8,157.4c2.3,0,4.2,0.8,5.9,2.1c1.2-3.3,2.4-6.6,3.3-10c-2.8-1.3-6.1-2.1-9.8-2.1c-0.4,0-0.7,0-1.1,0
					c-1.2,4.2-2.7,8.3-4.5,12.3C216.1,158.3,218.2,157.4,220.8,157.4z"/>
				<path class="st1" d="M197.9,186.5c-0.5,0.6-1.1,1.2-1.6,1.9c-0.1,0.1-0.2,0.2-0.3,0.3c-0.7,0.8-1.5,1.6-2.3,2.4
					c-0.3,0.4-0.7,0.7-1,1.1c-0.4,0.4-0.7,0.7-1.1,1.1c-0.6,0.6-1.2,1.2-1.8,1.8c-0.2,0.2-0.4,0.4-0.6,0.5c-0.8,0.7-1.6,1.4-2.4,2.1
					c-0.1,0.1-0.3,0.2-0.4,0.4c-19.3,16.5-44.6,26.2-72.2,25.3c-56.2-1.8-101.6-48-102.4-104.2C11.3,92.4,20.9,67.8,37,48.9
					c22.1-25.7,56-40.4,91.8-36.5c58.8,6.4,101,59.8,93.7,118.3c-0.3,2.3-0.7,4.6-1.1,6.9c3.9,0.1,7.5,0.9,10.8,2.1
					c0.5-2.5,0.9-5.1,1.2-7.7c1-8,1.1-15.9,0.5-23.6c0.1,0,0.1,0,0.2,0c-4.6-60.4-55-107.9-116.6-107.9C87.9,0.6,60.8,11.7,40.1,30
					C19.5,48.2,5.1,73.8,1.4,103.3c-5.9,47.5,17.6,91.8,56.2,114.8c0-0.1,0.1-0.2,0.1-0.3c16.1,9.6,34.6,15.5,54.5,16.4
					c0,0.1,0,0.1,0,0.2c31.5,1.5,61.1-9.8,83.3-29.6c0.1-0.1,0.2-0.2,0.3-0.2c0.9-0.8,1.8-1.7,2.7-2.5c0.1-0.1,0.2-0.2,0.3-0.2
					c0.8-0.8,1.6-1.5,2.3-2.3c0.4-0.4,0.8-0.8,1.2-1.2c0.3-0.4,0.7-0.7,1-1.1c1-1,1.9-2.1,2.8-3.1c0,0,0.1-0.1,0.1-0.1
					c0.4-0.4,0.7-0.9,1.1-1.3C203.6,191.3,200.5,189.1,197.9,186.5z"/>
			</g>
		</g>
	</g>
	<g>
		<g>
			<path class="st1" d="M108.6,64.4c-0.9-0.8-1.9-1.4-3-1.9c-1.1-0.5-2.5-0.7-4.1-0.7c-2,0-3.8,0.4-5.4,1.2c-1.6,0.8-3,2-4.2,3.4
				c-0.8,1-1.4,2.1-2,3.3V48.6h-9.3v15.8c-0.9-0.8-1.9-1.4-3-1.9c-1.1-0.5-2.5-0.7-4.1-0.7c-2,0-3.8,0.4-5.4,1.2
				c-1.6,0.8-3,2-4.2,3.4c-1.1,1.4-2,3-2.6,4.9c-0.1-0.7-0.3-1.5-0.6-2.2c-0.6-1.5-1.4-2.8-2.4-3.9c-1-1.1-2.3-1.9-3.8-2.5
				c-1.5-0.6-3.2-0.9-5.1-0.9c-2.6,0-5.1,0.4-7.4,1.2c-2.3,0.8-4.4,2-6.3,3.7l1.7,2.9c0.3,0.4,0.6,0.8,1.1,1.1
				c0.4,0.3,1,0.5,1.6,0.5c0.7,0,1.3-0.1,1.9-0.4c0.5-0.2,1.1-0.5,1.6-0.8c0.5-0.3,1.2-0.6,1.9-0.8s1.6-0.4,2.7-0.4
				c1.4,0,2.4,0.4,3.2,1.2c0.8,0.8,1.1,2.1,1.1,3.9v1.3c-3.6,0.1-6.5,0.4-8.9,1.1c-2.3,0.6-4.2,1.4-5.6,2.4c-1.4,1-2.3,2-2.9,3.2
				c-0.6,1.2-0.8,2.3-0.8,3.4c0,1.4,0.2,2.6,0.7,3.7c0.4,1.1,1.1,2,1.9,2.7c0.8,0.7,1.8,1.3,3,1.6s2.5,0.6,3.9,0.6
				c1.1,0,2-0.1,2.9-0.3c0.9-0.2,1.7-0.4,2.5-0.8c0.8-0.3,1.5-0.8,2.2-1.3c0.7-0.5,1.5-1.1,2.2-1.7l0.7,1.7c0.3,0.8,0.7,1.3,1.1,1.5
				c0.5,0.2,1.1,0.4,2,0.4h4.3v-7.3c0.5,1.4,1.1,2.6,1.9,3.6c1,1.4,2.2,2.4,3.6,3.1c1.4,0.7,2.9,1.1,4.5,1.1c1.1,0,2-0.1,3-0.3
				c0.9-0.2,1.8-0.5,2.5-0.9c0.8-0.4,1.5-0.9,2.2-1.4c0.7-0.5,1.3-1.1,1.9-1.8l0.7,2.4c0.4,1,1.1,1.6,2.3,1.6h5.8v-6.4
				c0.4,1,0.9,1.9,1.5,2.7c1,1.4,2.2,2.4,3.6,3.1c1.4,0.7,2.9,1.1,4.5,1.1c1.1,0,2-0.1,3-0.3c0.9-0.2,1.8-0.5,2.5-0.9
				c0.8-0.4,1.5-0.9,2.2-1.4c0.7-0.5,1.3-1.1,1.9-1.8l0.7,2.4c0.4,1,1.1,1.6,2.3,1.6h5.8V48.6h-9.3V64.4z M52.4,85.2
				c-0.9,0.9-1.8,1.6-2.7,2c-0.9,0.4-2,0.6-3.1,0.6c-1.1,0-2-0.2-2.6-0.6c-0.6-0.4-0.9-1.2-0.9-2.2c0-0.5,0.1-1,0.4-1.5
				c0.3-0.5,0.8-0.9,1.5-1.2c0.7-0.4,1.7-0.7,2.9-0.9c1.2-0.2,2.7-0.4,4.6-0.5V85.2z M80.6,83.9c-0.4,0.5-0.8,0.9-1.2,1.3
				s-0.8,0.7-1.3,0.9s-1,0.4-1.5,0.6c-0.6,0.1-1.2,0.2-1.8,0.2c-0.7,0-1.4-0.1-2-0.5c-0.6-0.3-1.1-0.8-1.5-1.5
				c-0.4-0.7-0.8-1.6-1-2.7s-0.4-2.5-0.4-4.1c0-1.7,0.2-3.1,0.5-4.3s0.7-2.2,1.2-2.9c0.5-0.8,1.2-1.3,1.9-1.6
				c0.7-0.3,1.5-0.5,2.4-0.5c0.9,0,1.8,0.2,2.6,0.5c0.8,0.3,1.6,0.9,2.3,1.6V83.9z M108.6,83.9c-0.4,0.5-0.8,0.9-1.2,1.3
				s-0.8,0.7-1.3,0.9s-1,0.4-1.5,0.6c-0.6,0.1-1.2,0.2-1.8,0.2c-0.7,0-1.4-0.1-2-0.5c-0.6-0.3-1.1-0.8-1.5-1.5
				c-0.4-0.7-0.8-1.6-1-2.7s-0.4-2.5-0.4-4.1c0-1.7,0.2-3.1,0.5-4.3s0.7-2.2,1.2-2.9c0.5-0.8,1.2-1.3,1.9-1.6
				c0.7-0.3,1.5-0.5,2.4-0.5c0.9,0,1.8,0.2,2.6,0.5c0.8,0.3,1.6,0.9,2.3,1.6V83.9z"/>
			<path class="st1" d="M198.8,69c-0.5-1.5-1.1-2.7-2-3.8c-0.9-1-2-1.9-3.3-2.5s-2.8-0.9-4.5-0.9c-1,0-1.9,0.1-2.8,0.3
				c-0.8,0.2-1.6,0.4-2.4,0.8c-0.7,0.3-1.4,0.7-2.1,1.2c-0.6,0.5-1.3,1-1.9,1.6l-0.5-1.8c-0.4-1-1.1-1.6-2.3-1.6h-5.8v7.1
				c-0.7-1.2-1.5-2.4-2.4-3.3c-1.4-1.4-3.1-2.4-5-3.2c-1.9-0.7-4.1-1.1-6.5-1.1c-2.4,0-4.5,0.4-6.5,1.1c-2,0.7-3.6,1.8-5,3.2
				s-2.5,3.1-3.3,5c-0.8,2-1.2,4.2-1.2,6.6c0,2.5,0.4,4.7,1.2,6.7c0.8,2,1.9,3.7,3.3,5.1c1.4,1.4,3.1,2.5,5,3.2s4.1,1.1,6.5,1.1
				c2.4,0,4.5-0.4,6.5-1.1c1.9-0.8,3.6-1.8,5-3.2c1-1,1.8-2.1,2.4-3.3v7.2h9.3V71.3c0.8-0.7,1.7-1.3,2.6-1.8
				c0.9-0.4,1.8-0.6,2.9-0.6c1.4,0,2.4,0.4,3.1,1.3c0.7,0.9,1,2,1,3.6v19.8h9.3V73.8C199.5,72.1,199.3,70.5,198.8,69z M162.1,84.9
				c-1,1.5-2.6,2.3-4.7,2.3c-2.2,0-3.8-0.8-4.8-2.3c-1-1.5-1.5-3.8-1.5-6.9c0-3.1,0.5-5.4,1.5-6.9c1-1.5,2.6-2.2,4.8-2.2
				c2.1,0,3.7,0.8,4.7,2.2s1.5,3.8,1.5,6.9C163.7,81.1,163.2,83.3,162.1,84.9z"/>
		</g>
		<rect x="115.2" y="74.3" class="st1" width="29.5" height="6.9"/>
	</g>
</g>
</svg>
