<?xml version="1.0" encoding="UTF-8"?><svg id="Livello_1" xmlns="http://www.w3.org/2000/svg" viewBox="0 0 250 250"><defs><style>.cls-1{opacity:.66;}.cls-2{fill:#f6f6f6;stroke-width:0px;}</style></defs><g class="cls-1"><path class="cls-2" d="m233,107.95v-11.75h-86.62c-1.53,1.58-3.27,2.98-5.22,4.23-4.99,3.17-10.43,4.65-17.48,4.64-7.26-.16-14.46-2.89-20.19-8.8-.02-.02-.04-.05-.06-.07H17v11.75h33.59v92.35h-21.81v11.75h51.06v-11.75h-16.67c.58-6.57,2.14-12.96,4.67-19.04,3.16-7.57,7.68-14.37,13.43-20.22,5.74-5.83,12.43-10.4,19.86-13.59,5.76-2.47,11.78-4.03,17.99-4.65,2.07-.21,4.16-.31,6.27-.31,1.84,0,3.66.08,5.47.24,6.49.57,12.78,2.15,18.79,4.72,7.43,3.19,14.12,7.76,19.86,13.59,5.76,5.84,10.28,12.64,13.43,20.22,2.54,6.08,4.1,12.47,4.67,19.04h-18.82v11.75h51.06v-11.75h-19.66v-92.35h32.79Zm-170.66,57.26v-58.67h0v1.41h56.79v22.47c-23.87,2.01-44.56,15.39-56.79,34.79Zm68.54-34.85v-22.41h57.59v57.26c-12.37-19.61-33.38-33.08-57.59-34.85Z"/></g><path class="cls-2" d="m146.49,71.4c-1.07-4.83-3.06-9.29-5.45-13.59-2.81-5.05-6.16-9.74-9.72-14.28-1.15-1.46-2.38-2.85-3.47-4.37-.86-1.19-2.15-1.32-3.48-1.14-1.34.18-2.31,1.01-3.19,1.96-1.02,1.09-1.81,2.36-2.72,3.53-2.77,3.58-5.45,7.22-7.81,11.09-2.57,4.22-4.84,8.59-6.32,13.33-1.33,4.28-1.95,8.62-1.32,13.1.61,4.32,2.31,8.16,5.29,11.37,4.45,4.79,10.04,7,15.68,7.13,5.47,0,9.7-1.19,13.57-3.76,4.03-2.67,6.91-6.3,8.51-10.87,1.56-4.44,1.45-8.96.44-13.48Zm-21.76,19.63c-3.27-.02-6.4-1.04-9.11-3.24-1.83-1.48-3.19-3.31-4.01-5.53-.93-2.52-1.06-5.11-.7-7.75.45-3.31,1.61-6.39,3.05-9.37,1.81-3.74,4.03-7.22,6.49-10.55,1.3-1.77,2.63-3.52,3.95-5.27.06-.07.13-.14.18-.21.18-.24.31-.21.49.02,1.37,1.65,2.72,3.31,4.02,5.02,1.48,1.95,2.9,3.95,4.19,6.03,1.61,2.61,3.01,5.31,4.07,8.19.72,1.96,1.24,3.97,1.56,6.03.34,2.21.27,4.41-.32,6.57-.9,3.32-2.84,5.91-5.74,7.76-2.41,1.54-5.06,2.29-8.13,2.31Z"/></svg>