<?xml version="1.0" encoding="UTF-8"?><svg id="Livello_1" xmlns="http://www.w3.org/2000/svg" viewBox="0 0 250 250"><defs><style>.cls-1{opacity:.88;}.cls-1,.cls-2,.cls-3{fill:#f6f6f6;stroke-width:0px;}.cls-3{opacity:.66;}</style></defs><g id="pLLVmm"><path class="cls-1" d="m189.99,42.74c1.54,1.32,3,2.53,4.41,3.78,11.93,10.56,21.02,23.15,27.2,37.85,5.81,13.82,8.55,28.24,8.15,43.21-.62,22.71-7.82,43.15-21.61,61.21-9.98,13.07-22.43,23.22-37.21,30.44-13.12,6.41-27,9.87-41.6,10.47-9.01.37-17.93-.39-26.74-2.3-9.1-1.98-17.79-5.13-26.04-9.49-1.79-.94-2.68-2.5-2.68-4.48,0-1.95.89-3.48,2.61-4.42,1.72-.94,3.45-.78,5.16.12,5.93,3.1,12.13,5.53,18.59,7.26,12.43,3.32,25.02,4.17,37.78,2.36,20.38-2.89,37.93-11.61,52.66-25.91,14-13.59,23.05-29.98,27.04-49.09,2.54-12.16,2.58-24.37.2-36.57-4.09-20.93-14.13-38.51-29.97-52.78-.89-.8-1.81-1.58-2.72-2.36-.19-.16-.37-.47-.66-.35-.29.12-.19.47-.21.71-.39,4.42-.78,8.84-1.15,13.26-.13,1.59-.4,3.1-1.63,4.28-1.53,1.47-4.1,2-6.05,1.18-1.86-.78-2.74-2.31-2.56-4.51.5-5.92,1.02-11.83,1.53-17.74.24-2.72.49-5.45.71-8.17.28-3.35,1.42-4.8,4.62-5.68,8.23-2.27,16.46-4.52,24.68-6.8,1.99-.55,3.8-.36,5.21,1.27,1.44,1.67,1.82,3.61,1.03,5.7-.58,1.53-1.81,2.34-3.33,2.76-3.63,1-7.26,2-10.9,3-2.15.59-4.29,1.18-6.57,1.81Z"/><path class="cls-3" d="m58.01,191.53c.92-5.05,1.81-9.93,2.72-14.81.16-.88.31-1.78.59-2.63.52-1.61,1.68-2.52,3.36-2.74,3.77-.5,6.82,2.71,6.14,6.42-1.56,8.53-3.12,17.05-4.67,25.58-.39,2.12-1.97,3.73-4,4.08-8.64,1.5-17.28,3-25.91,4.52-3.75.66-6.99-2.41-6.5-6.19.24-1.86,1.51-3.15,3.58-3.52,5.32-.95,10.64-1.87,15.96-2.82.48-.09,1.21.02,1.37-.37.18-.45-.5-.77-.83-1.11-10.07-10.34-17.68-22.27-22.81-35.75-5.4-14.2-7.52-28.92-6.54-44.08.93-14.37,4.67-27.97,11.24-40.78,7.55-14.7,18-26.95,31.29-36.76,10.77-7.95,22.65-13.63,35.61-17,10.8-2.81,21.77-3.85,32.92-3.16,9.24.58,18.23,2.37,27.02,5.26,2.2.72,3.62,2.14,3.87,4.48.39,3.62-3.01,6.39-6.54,5.32-3.13-.95-6.24-1.93-9.43-2.66-11.3-2.6-22.69-3.17-34.18-1.6-16.9,2.32-32.07,8.76-45.5,19.26-11.18,8.74-19.95,19.48-26.35,32.16-4.46,8.85-7.44,18.18-8.94,27.98-1.37,8.93-1.44,17.86-.22,26.82,1.22,8.99,3.56,17.67,7.41,25.86,4.83,10.28,10.87,19.81,18.96,27.9.09.09.2.16.42.33Z"/><path class="cls-2" d="m121.18,182.83c-11.51-.26-22.93-4.78-32.01-14.56-6.08-6.55-9.55-14.38-10.8-23.21-1.29-9.13-.03-18.01,2.7-26.74,3.02-9.68,7.66-18.59,12.91-27.21,4.81-7.9,10.29-15.33,15.94-22.64,1.86-2.4,3.47-4.98,5.54-7.21,1.8-1.93,3.78-3.63,6.52-3.99,2.73-.36,5.36-.1,7.11,2.33,2.23,3.09,4.75,5.92,7.09,8.91,7.27,9.28,14.1,18.84,19.84,29.16,4.88,8.78,8.94,17.89,11.13,27.75,2.05,9.24,2.28,18.47-.9,27.53-3.28,9.34-9.16,16.74-17.38,22.2-7.9,5.25-16.53,7.69-27.7,7.68Zm1.44-10.14c7.6-.06,14.16-1.91,20.13-5.72,7.18-4.58,11.98-10.99,14.22-19.21,1.45-5.34,1.63-10.79.79-16.26-.79-5.1-2.09-10.07-3.87-14.93-2.62-7.13-6.09-13.83-10.07-20.28-3.19-5.16-6.69-10.1-10.36-14.94-3.21-4.22-6.56-8.33-9.94-12.41-.46-.56-.79-.64-1.22-.04-.14.19-.32.34-.45.53-3.26,4.35-6.55,8.68-9.78,13.05-6.09,8.25-11.6,16.87-16.07,26.11-3.57,7.38-6.45,15-7.56,23.19-.88,6.53-.57,12.94,1.73,19.18,2.03,5.49,5.41,10.02,9.93,13.69,6.71,5.45,14.46,7.97,22.54,8.03Z"/></g></svg>