<?xml version="1.0" encoding="UTF-8"?><svg id="Livello_1" xmlns="http://www.w3.org/2000/svg" viewBox="0 0 250 250"><defs><style>.cls-1,.cls-2{fill:#f6f6f6;stroke-width:0px;}.cls-2{opacity:.66;}</style></defs><path class="cls-1" d="m121.18,167.49c-11.51-.26-22.93-4.78-32.01-14.56-6.08-6.55-9.55-14.38-10.8-23.21-1.29-9.13-.03-18.01,2.7-26.74,3.02-9.68,7.66-18.59,12.91-27.21,4.81-7.9,10.29-15.33,15.94-22.64,1.86-2.4,3.47-4.98,5.54-7.21,1.8-1.93,3.78-3.63,6.52-3.99,2.73-.36,5.36-.1,7.11,2.33,2.23,3.09,4.75,5.92,7.09,8.91,7.27,9.28,14.1,18.84,19.84,29.16,4.88,8.78,8.94,17.89,11.13,27.75,2.05,9.24,2.28,18.47-.9,27.53-3.28,9.34-9.16,16.74-17.38,22.2-7.9,5.25-16.53,7.69-27.7,7.68Zm1.44-10.14c7.6-.06,14.16-1.91,20.13-5.72,7.18-4.58,11.98-10.99,14.22-19.21,1.45-5.34,1.63-10.79.79-16.26-.79-5.1-2.09-10.07-3.87-14.93-2.62-7.13-6.09-13.83-10.07-20.28-3.19-5.16-6.69-10.1-10.36-14.94-3.21-4.22-6.56-8.33-9.94-12.41-.46-.56-.79-.64-1.22-.04-.14.19-.32.34-.45.53-3.26,4.35-6.55,8.68-9.78,13.05-6.09,8.25-11.6,16.87-16.07,26.11-3.57,7.38-6.45,15-7.56,23.19-.88,6.53-.57,12.94,1.73,19.18,2.03,5.49,5.41,10.02,9.93,13.69,6.71,5.45,14.46,7.97,22.54,8.03Z"/><path class="cls-2" d="m209.78,67.28h-48.22c1.34,2.12,2.65,4.26,3.92,6.43,1.07,1.85,2.1,3.71,3.1,5.58h41.2c4.41,0,8,3.59,8,8v19.91h-38.16c.06.25.14.5.2.76.85,3.67,1.45,7.33,1.75,10.99h36.22v30.47h-42.53c-4.37,7.96-10.63,14.53-18.65,19.7v27.09h-62.75v-24.32c-4.12-2.22-8.06-5-11.75-8.36v32.69h-41.88c-4.41,0-8-3.59-8-8v-27.05h47.42c-.1-.1-.2-.2-.3-.3-3.41-3.52-6.19-7.35-8.37-11.45h-38.75v-30.47h32.7c.26-3.95.86-7.86,1.75-11.75h-34.45v-19.91c0-4.41,3.59-8,8-8h37.3c2.17-4.08,4.51-8.07,6.97-12.01h-44.28c-11.05,0-20.01,8.96-20.01,20.01v100.91c0,11.05,8.96,20.01,20.01,20.01h169.55c11.05,0,20.01-8.96,20.01-20.01v-100.91c0-11.05-8.96-20.01-20.01-20.01h0Zm-41.43,128.92v-35.05h49.43v27.05c0,4.41-3.59,8-8,8h-41.43Z"/></svg>